# xmcd CD database file
#
# Track frame offsets:
#	150
#	11573
#	25148
#	46783
#	62145
#	80700
#	93515
#	110975
#	130868
#	150155
#	164920
#	185573
#	201175
#	224388
#	246905
#
# Disc length: 3470 seconds
#
# Revision: 0
# Processed by: cddbd v1.5PL3 Copyright (c) Steve Scherf et al.
# Submitted via: CDex 1.50beta10
#
DISCID=d40d8c0f
DTITLE=Pernell Charity - The Virginian
DYEAR=1975
DGENRE=Blues
TTITLE0=Woke Up On The Hill
TTITLE1=War Blues
TTITLE2=I'm Climbing On Top Of The Hill
TTITLE3=Black Rat Swing
TTITLE4=Pig Meat Mama
TTITLE5=Flying The Kite
TTITLE6=Mamie
TTITLE7=Evil Hearted Woman
TTITLE8=Richmond Blues
TTITLE9=Blind Man
TTITLE10=Find Me A Home
TTITLE11=Come Back, Baby, Come
TTITLE12=I Don't See Why
TTITLE13=Blind Lemon's Blues
TTITLE14=Dig Myself A Hole
EXTD=YEAR: 1975
EXTT0=
EXTT1=
EXTT2=
EXTT3=
EXTT4=
EXTT5=
EXTT6=
EXTT7=
EXTT8=
EXTT9=
EXTT10=
EXTT11=
EXTT12=
EXTT13=
EXTT14=
PLAYORDER=
